<svg xmlns="http://www.w3.org/2000/svg" width="15.776" height="21" viewBox="0 0 15.776 21">
  <g id="_1" data-name="1" transform="translate(-106 -48)">
    <path id="Path_737" data-name="Path 737" d="M120.993,69a.779.779,0,0,1-.39-.1l-6.715-3.851L107.173,68.9A.784.784,0,0,1,106,68.216V48.784a.784.784,0,0,1,.784-.784h14.209a.784.784,0,0,1,.784.784V68.216A.784.784,0,0,1,120.993,69Zm-7.1-5.642a.779.779,0,0,1,.39.1l5.931,3.4v-17.3H107.567v17.3l5.931-3.4A.779.779,0,0,1,113.888,63.358Z"/>
  </g>
</svg>
