<svg xmlns="http://www.w3.org/2000/svg" xmlns:xlink="http://www.w3.org/1999/xlink" width="42" height="42" viewBox="0 0 42 42">
  <defs>
    <filter id="Ellipse_3188" x="0" y="0" width="42" height="42" filterUnits="userSpaceOnUse">
      <feOffset dy="3" input="SourceAlpha"/>
      <feGaussianBlur stdDeviation="3" result="blur"/>
      <feFlood flood-opacity="0.161"/>
      <feComposite operator="in" in2="blur"/>
      <feComposite in="SourceGraphic"/>
    </filter>
  </defs>
  <g id="Group_1498" data-name="Group 1498" transform="translate(-167 -226)">
    <g transform="matrix(1, 0, 0, 1, 167, 226)" filter="url(#Ellipse_3188)">
      <circle id="Ellipse_3188-2" data-name="Ellipse 3188" cx="12" cy="12" r="12" transform="translate(9 6)" fill="#fff"/>
    </g>
    <path id="Icon_awesome-camera" data-name="Icon awesome-camera" d="M10.637,4.577V10.56a1,1,0,0,1-1,1H1a1,1,0,0,1-1-1V4.577a1,1,0,0,1,1-1H2.826L3.081,2.9a1,1,0,0,1,.933-.646H6.621a1,1,0,0,1,.933.646l.258.684H9.64A1,1,0,0,1,10.637,4.577ZM7.812,7.569a2.493,2.493,0,1,0-2.493,2.493A2.5,2.5,0,0,0,7.812,7.569Zm-.665,0A1.828,1.828,0,1,1,5.319,5.74,1.831,1.831,0,0,1,7.147,7.569Z" transform="translate(183 236.75)"/>
  </g>
</svg>
