<svg xmlns="http://www.w3.org/2000/svg" width="45" height="45" viewBox="0 0 45 45">
  <g id="Group_1436" data-name="Group 1436" transform="translate(-165 -1043)">
    <circle id="Ellipse_27" data-name="Ellipse 27" cx="22.5" cy="22.5" r="22.5" transform="translate(165 1043)" fill="#3aafa9"/>
    <g id="plus-black-symbol" transform="translate(179 1057)">
      <path id="Path_735" data-name="Path 735" d="M16.275,6.368a1.092,1.092,0,0,0-.8-.33H10.567V1.132a1.092,1.092,0,0,0-.33-.8,1.092,1.092,0,0,0-.8-.33H7.17a1.092,1.092,0,0,0-.8.33,1.092,1.092,0,0,0-.33.8V6.038H1.132a1.092,1.092,0,0,0-.8.33,1.091,1.091,0,0,0-.33.8V9.435a1.091,1.091,0,0,0,.33.8,1.092,1.092,0,0,0,.8.33H6.038v4.906A1.127,1.127,0,0,0,7.17,16.605H9.435a1.127,1.127,0,0,0,1.132-1.132V10.567h4.906a1.127,1.127,0,0,0,1.132-1.132V7.17A1.091,1.091,0,0,0,16.275,6.368Z" transform="translate(0)" fill="#fff"/>
    </g>
  </g>
</svg>
