<svg xmlns="http://www.w3.org/2000/svg" width="23.362" height="17.315" viewBox="0 0 23.362 17.315">
  <g id="Group_74" data-name="Group 74" transform="translate(-251 -769)">
    <g id="Group_71" data-name="Group 71" transform="translate(-2.218)">
      <g id="megaphone" transform="translate(242.218 727.277)">
        <g id="Group_69" data-name="Group 69" transform="translate(11 41.723)">
          <path id="Subtraction_1" data-name="Subtraction 1" d="M-3199.032-1926.685a3.277,3.277,0,0,1-1.05-.167c-1.8-.612-2.8-2.692-2.389-4.944l-1.832-.579h-4.091a.826.826,0,0,1-.825-.824v-5.659a.826.826,0,0,1,.825-.825h.1c1.573,0,4.218.006,4.254.012l13.558-4.294a1.049,1.049,0,0,1,.264-.035.781.781,0,0,1,.585.251.814.814,0,0,1,.227.573V-1941h-1.65v-1.052l-3.321,1.052h-.056v.018l-8.913,2.824v4.358l12.289,3.893V-1931h1.65v2.216a.873.873,0,0,1-.241.59.752.752,0,0,1-.559.236,1.077,1.077,0,0,1-.276-.038l-4.645-1.472a4.87,4.87,0,0,1-2.252,2.4A3.834,3.834,0,0,1-3199.032-1926.685Zm-1.846-4.6h0a2.562,2.562,0,0,0,1.33,2.879,1.757,1.757,0,0,0,.56.093,2.979,2.979,0,0,0,2.27-1.654l-4.16-1.319Zm-6.691-6.743v4.01H-3205v-4.01Z" transform="translate(3209.218 1944)" fill="#7f7f7f"/>
        </g>
      </g>
      <g id="new_1_" data-name="new (1)" transform="translate(268 772.42)">
        <g id="Group_70" data-name="Group 70">
          <path id="Path_741" data-name="Path 741" d="M8.58,4.29,7.993,3.3l.012-1.153L7,1.579,6.435.574,5.282.587,4.29,0,3.3.587,2.144.574,1.579,1.579.574,2.144.587,3.3,0,4.29l.587.992L.574,6.435,1.579,7l.565,1.005L3.3,7.993l.992.587.992-.587,1.153.012L7,7l1.005-.565L7.993,5.282ZM3.056,1.87a2.72,2.72,0,0,1,2.467,0,2.739,2.739,0,0,1,.938.79l-.4.3a2.212,2.212,0,0,0-3.539,0l-.4-.3A2.74,2.74,0,0,1,3.056,1.87ZM4.386,4.1v.351H3.775v.19H4.5v.368H3.3V3.567H4.471v.368h-.7V4.1Zm-2.71-.537h.4l.549.657V3.567H3.1V5.013H2.7l-.549-.657v.657H1.676V3.567ZM5.523,6.709a2.72,2.72,0,0,1-2.467,0,2.739,2.739,0,0,1-.938-.79l.4-.3a2.212,2.212,0,0,0,3.539,0l.4.3A2.739,2.739,0,0,1,5.523,6.709Zm.991-1.7H5.992L5.758,4.24l-.246.773H4.99L4.527,3.567h.5l.252.822.266-.822H6l.252.833.266-.833h.463Z" fill="#7f7f7f"/>
        </g>
      </g>
    </g>
  </g>
</svg>
