<svg xmlns="http://www.w3.org/2000/svg" width="16.57" height="16.57" viewBox="0 0 16.57 16.57">
  <path id="Path_27" data-name="Path 27" d="M161.312,52.382a7.091,7.091,0,0,1,4.495,1.609.6.6,0,0,0,.766-.931,8.273,8.273,0,1,0,1.942,2.3.6.6,0,0,0-1.047.6,7.078,7.078,0,0,1-.046,7.076,3.215,3.215,0,0,0-3.151-2.6h0a3.5,3.5,0,1,0-5.916,0h0a3.215,3.215,0,0,0-3.15,2.6,7.077,7.077,0,0,1,6.109-10.654Zm-2.959,9.262h1.46a.6.6,0,0,0,.312-1.118,2.3,2.3,0,1,1,2.373,0,.6.6,0,0,0,.312,1.118h1.46a2.007,2.007,0,0,1,2,2v.857l-.064.062-.093.088a7.064,7.064,0,0,1-3.537,1.772,7.191,7.191,0,0,1-2.537,0,7.065,7.065,0,0,1-3.54-1.775l-.09-.085-.064-.063v-.857A2.007,2.007,0,0,1,158.353,61.644Z" transform="translate(-153.027 -51.177)" fill="#7f7f7f"/>
</svg>
