<svg xmlns="http://www.w3.org/2000/svg" width="17.277" height="16.569" viewBox="0 0 17.277 16.569">
  <path id="Path_738" data-name="Path 738" d="M17.081,18.116l-7.032-7.078-.028-.027a2.023,2.023,0,0,0-2.7-.006l-.028.026L.2,18.114a.675.675,0,1,0,.954.955l.536-.535v5.827a2.7,2.7,0,0,0,2.7,2.7h2.43a.675.675,0,0,0,.675-.675v-5.5H9.854v5.5a.675.675,0,0,0,.675.675h2.362a2.7,2.7,0,0,0,2.7-2.7.675.675,0,1,0-1.35,0,1.351,1.351,0,0,1-1.35,1.35H11.2v-5.5a.675.675,0,0,0-.675-.675H6.817a.675.675,0,0,0-.675.675v5.5H4.387a1.351,1.351,0,0,1-1.35-1.35V17.208q0-.01,0-.02L8.232,12a.674.674,0,0,1,.876,0l5.133,5.167v3.816a.675.675,0,0,0,1.35,0V18.53l.534.537a.675.675,0,1,0,.958-.951Z" transform="translate(0 -10.492)" fill="#7f7f7f"/>
</svg>
