<svg xmlns="http://www.w3.org/2000/svg" width="22.456" height="18.652" viewBox="0 0 22.456 18.652">
  <path id="Path_743" data-name="Path 743" d="M21.194,49.239l.035.008H6.2l4.724-4.734a1.241,1.241,0,0,0,0-1.744l-.735-.735a1.23,1.23,0,0,0-1.736,0l-8.1,8.1a1.238,1.238,0,0,0,0,1.742l8.1,8.1a1.231,1.231,0,0,0,1.736,0l.735-.735a1.216,1.216,0,0,0,.358-.868,1.18,1.18,0,0,0-.358-.851L6.149,52.753H21.211a1.273,1.273,0,0,0,1.245-1.26v-1.04A1.248,1.248,0,0,0,21.194,49.239Z" transform="translate(0 -41.674)"/>
</svg>
